<?xml version="1.0" encoding="UTF-8"?>
<svg xmlns="http://www.w3.org/2000/svg" width="1551" height="523" viewBox="133 181 1551 523" role="img" aria-label="AZWO logo">
<title>AZWO logo</title>
<g fill-rule="evenodd"><path id="wordmark" fill="#191A35" d="M583.00,270.00 C592.40,270.63 601.69,270.87 610.00,276.00 C624.19,284.76 630.19,304.23 626.00,320.00 C623.79,328.32 616.81,334.19 611.00,340.00 C601.39,343.39 591.48,347.98 581.00,346.00 C555.08,341.10 540.98,309.09 556.00,287.00 C562.60,277.29 572.59,273.90 583.00,270.00 Z M167.00,662.00 C165.41,657.23 167.91,652.32 169.27,647.55 C173.19,633.84 180.14,622.86 190.18,612.82 C201.95,601.05 218.27,592.35 235.00,590.00 C244.48,588.67 255.13,590.00 264.71,590.00 C291.93,590.00 320.40,592.35 347.38,588.75 C361.54,586.86 377.10,577.14 386.38,566.69 C389.70,562.96 395.00,559.09 395.00,554.00 C361.22,554.00 327.45,554.00 293.67,554.00 C277.39,554.00 260.18,555.62 244.00,554.00 C212.01,550.79 182.23,526.90 171.00,497.00 C165.13,481.36 165.00,464.96 165.00,448.57 C165.00,429.11 167.84,409.14 178.00,392.00 C192.91,366.86 223.34,349.38 252.00,346.00 C261.62,344.86 272.09,346.00 281.79,346.00 C302.98,346.00 324.16,346.00 345.35,346.00 C372.28,346.00 399.76,343.56 425.00,355.00 C440.91,362.21 456.49,376.43 466.00,391.00 C482.83,416.79 479.23,448.65 479.54,477.92 C479.81,502.75 481.11,527.66 475.00,552.00 C470.18,571.21 459.20,587.62 446.43,602.29 C441.42,608.03 436.68,614.93 431.00,620.00 C409.61,639.09 379.89,653.02 352.00,659.00 C325.17,664.75 296.27,662.00 269.00,662.00 C235.00,662.00 201.00,662.00 167.00,662.00 Z M1074.00,413.00 C1036.67,413.00 999.33,413.00 962.00,413.00 C943.65,413.00 924.25,411.18 906.00,413.00 C890.37,414.56 874.15,424.26 871.00,441.00 C870.35,444.44 871.35,448.99 871.50,452.50 C871.65,455.87 870.93,460.83 872.00,464.00 C872.90,466.68 875.89,469.66 877.50,472.00 C879.23,474.52 880.85,477.85 883.00,480.00 C894.23,491.23 917.57,487.00 931.84,487.00 C988.90,487.00 1045.95,487.00 1103.00,487.00 C1103.00,496.29 1104.94,507.95 1103.00,517.00 C1100.21,530.02 1089.79,543.81 1078.00,550.00 C1066.26,556.16 1050.72,554.00 1038.00,554.00 C1010.00,554.00 982.00,554.00 954.00,554.00 C883.33,554.00 812.67,554.00 742.00,554.00 C700.25,554.00 656.68,558.17 616.00,548.00 C612.40,561.19 609.21,574.19 602.00,586.00 C579.10,623.50 537.52,651.75 494.00,659.00 C486.94,660.18 479.16,659.67 472.00,660.00 C472.00,637.67 472.00,615.33 472.00,593.00 C487.12,589.22 503.26,586.70 516.00,577.00 C529.98,566.35 542.47,549.73 548.00,533.00 C554.31,513.91 551.17,490.42 551.30,470.61 C551.54,435.74 551.77,400.87 552.00,366.00 C577.00,366.00 602.00,366.00 627.00,366.00 C627.00,393.74 627.00,421.48 627.00,449.22 C627.00,458.55 624.07,473.49 631.00,481.00 C635.84,486.24 642.43,486.02 648.88,486.06 C658.10,486.12 667.32,486.17 676.54,486.23 C718.69,486.49 760.85,486.74 803.00,487.00 C805.12,478.53 799.20,470.41 798.00,462.00 C794.22,435.45 803.91,401.91 822.00,382.00 C839.39,362.85 864.19,349.05 890.00,346.00 C907.94,343.88 927.46,346.00 945.55,346.00 C976.70,346.00 1016.00,338.94 1043.00,358.00 C1054.05,365.80 1060.90,376.46 1067.25,388.00 C1071.45,395.64 1072.30,404.48 1074.00,413.00 Z M240.00,465.00 C242.12,470.93 243.43,479.29 249.00,483.00 C258.51,489.34 272.19,487.00 283.00,487.00 C309.00,487.00 335.00,487.00 361.00,487.00 C371.67,487.00 382.33,487.00 393.00,487.00 C394.61,487.00 401.95,488.01 403.00,487.00 C403.94,486.09 403.05,484.38 403.08,483.08 C403.15,479.15 403.23,475.23 403.31,471.31 C403.63,454.81 404.72,439.12 401.00,423.00 C389.66,411.66 377.20,414.00 362.00,414.00 C336.00,414.00 310.00,414.00 284.00,414.00 C272.71,414.00 257.32,411.09 248.00,419.00 C235.78,429.37 240.00,450.91 240.00,465.00 Z M1021.00,601.00 C1030.65,601.00 1041.22,600.02 1050.00,605.00 C1066.11,614.13 1074.04,637.32 1064.00,654.00 C1058.23,663.59 1047.84,666.72 1038.00,670.00 C1027.69,670.79 1016.31,670.65 1007.00,665.00 C992.20,656.02 987.68,632.72 996.00,618.00 C1001.37,608.49 1011.64,605.09 1021.00,601.00 Z M647.00,602.00 C652.09,602.00 660.22,600.41 665.00,602.00 C668.92,603.31 672.08,614.94 673.71,618.45 C681.31,634.83 691.08,651.36 695.00,669.00 C688.33,669.00 681.67,669.00 675.00,669.00 C674.04,666.59 672.90,660.68 671.00,659.00 C669.76,657.91 664.66,658.00 663.08,658.00 C656.06,658.00 649.03,658.00 642.00,658.00 C640.33,661.67 638.67,665.33 637.00,669.00 C630.33,668.67 623.67,668.33 617.00,668.00 C627.00,646.00 637.00,624.00 647.00,602.00 Z M742.00,602.00 C760.67,602.33 779.33,602.67 798.00,603.00 C797.72,607.16 798.64,614.21 797.00,618.00 C794.22,624.43 784.80,631.42 780.04,636.65 C776.55,640.50 767.00,647.86 767.00,653.00 C777.33,653.00 787.67,653.00 798.00,653.00 C798.00,658.33 798.00,663.67 798.00,669.00 C778.67,668.67 759.33,668.33 740.00,668.00 C740.28,663.83 739.37,656.81 741.00,653.00 C742.55,649.39 747.61,645.48 750.23,642.50 C756.82,635.00 763.41,627.50 770.00,620.00 C769.67,619.33 769.33,618.67 769.00,618.00 C760.00,618.00 751.00,618.00 742.00,618.00 C742.00,612.67 742.00,607.33 742.00,602.00 Z M844.00,602.00 C850.33,602.33 856.67,602.67 863.00,603.00 C867.00,614.67 871.00,626.33 875.00,638.00 C875.67,638.00 876.33,638.00 877.00,638.00 C881.00,626.00 885.00,614.00 889.00,602.00 C894.33,602.33 899.67,602.67 905.00,603.00 C909.00,615.00 913.00,627.00 917.00,639.00 C920.15,637.42 920.26,633.72 921.22,630.44 C923.07,624.15 924.93,617.85 926.78,611.56 C927.50,609.11 928.08,602.97 931.00,602.00 C935.78,600.41 943.91,602.00 949.00,602.00 C949.00,611.62 944.87,619.74 941.67,628.75 C936.78,642.50 931.89,656.25 927.00,670.00 C921.00,669.67 915.00,669.33 909.00,669.00 C905.00,657.67 901.00,646.33 897.00,635.00 C896.33,635.00 895.67,635.00 895.00,635.00 C890.59,646.03 887.52,657.65 884.00,669.00 C878.00,669.00 872.00,669.00 866.00,669.00 C860.36,653.56 854.73,638.12 849.09,622.68 C846.70,616.14 842.29,608.84 844.00,602.00 Z M1047.00,639.00 C1047.66,634.38 1048.36,630.33 1046.00,626.00 C1041.60,617.93 1027.56,614.39 1020.00,620.00 C1015.62,623.25 1014.43,627.00 1013.00,632.00 C1013.00,638.19 1012.32,645.67 1018.00,650.00 C1025.42,655.65 1039.72,655.94 1045.00,647.00 C1046.21,644.95 1046.42,641.32 1047.00,639.00 Z M649.00,642.00 C653.67,642.33 658.33,642.67 663.00,643.00 C664.93,639.14 660.38,635.74 659.00,632.00 C658.56,630.79 658.82,627.97 658.00,627.00 C657.32,626.20 656.00,626.33 655.00,626.00 C653.00,631.33 651.00,636.67 649.00,642.00 Z"/><path id="symbol" fill="#5143EB" d="M1397.00,307.00 C1413.39,307.00 1429.78,307.00 1446.17,307.00 C1453.69,307.00 1462.34,306.95 1465.00,316.00 C1468.47,327.80 1461.52,337.80 1455.84,347.27 C1443.96,367.06 1432.09,386.85 1420.21,406.64 C1416.27,413.21 1412.81,421.05 1408.00,427.00 C1399.86,437.08 1387.98,444.99 1377.68,452.64 C1361.00,465.03 1343.59,478.08 1330.00,494.00 C1317.06,509.16 1306.62,527.54 1295.22,543.90 C1279.09,567.05 1261.67,589.23 1244.54,611.65 C1239.43,618.34 1233.49,624.88 1229.00,632.00 C1227.45,634.46 1226.78,637.71 1225.00,640.00 C1220.63,645.61 1213.35,650.28 1208.00,655.00 C1202.53,657.58 1196.78,661.24 1191.00,663.00 C1179.18,666.61 1165.24,665.27 1153.04,665.52 C1145.63,665.67 1137.34,666.92 1130.00,666.00 C1117.51,664.43 1111.16,654.57 1110.44,643.11 C1110.33,641.23 1109.43,637.77 1110.00,636.00 C1110.84,633.37 1114.29,630.23 1115.96,627.99 C1120.32,622.12 1124.69,616.25 1129.06,610.38 C1144.55,589.57 1160.03,568.75 1175.52,547.94 C1212.85,497.77 1250.17,447.60 1287.50,397.44 C1307.53,370.52 1326.55,335.30 1357.00,319.00 C1369.62,312.24 1383.12,309.64 1397.00,307.00 Z M1498.00,347.00 C1505.33,347.73 1512.11,348.81 1515.00,357.00 C1515.93,359.62 1515.21,364.05 1515.29,366.85 C1515.51,374.08 1515.73,381.30 1515.94,388.53 C1516.72,414.57 1517.13,439.89 1531.00,463.00 C1540.48,478.81 1552.61,493.55 1563.27,508.60 C1585.16,539.54 1607.06,570.49 1628.95,601.43 C1634.33,609.03 1639.71,616.63 1645.09,624.23 C1647.08,627.05 1650.93,630.74 1652.00,634.00 C1653.77,639.37 1652.58,650.58 1649.00,655.00 C1639.93,666.20 1628.11,666.00 1615.00,666.00 C1603.67,666.00 1592.33,666.00 1581.00,666.00 C1573.44,665.06 1564.24,665.31 1557.00,663.00 C1542.15,658.27 1533.14,645.35 1524.71,633.32 C1513.67,617.56 1502.62,601.79 1491.57,586.02 C1478.62,567.54 1465.67,549.06 1452.71,530.57 C1440.90,513.71 1428.12,495.18 1426.00,474.00 C1422.32,437.17 1448.02,410.87 1468.88,383.76 C1478.59,371.14 1486.20,357.62 1498.00,347.00 Z M1376.00,529.00 C1384.66,529.00 1392.76,528.86 1401.00,532.00 C1425.52,541.34 1434.61,569.04 1427.00,593.00 C1423.44,604.21 1413.00,612.09 1406.00,621.00 C1398.90,630.04 1394.05,640.76 1385.00,648.00 C1379.55,658.89 1370.48,662.51 1359.40,666.20 C1351.24,668.92 1342.57,668.00 1334.00,668.00 C1319.33,668.00 1304.67,668.00 1290.00,668.00 C1282.00,668.00 1274.00,668.00 1266.00,668.00 C1264.29,668.00 1259.42,668.85 1258.00,668.00 C1253.76,665.46 1257.92,659.52 1259.61,657.33 C1266.83,648.00 1274.06,638.67 1281.28,629.33 C1294.41,612.37 1309.10,595.84 1321.00,578.00 C1325.17,571.75 1329.37,566.86 1334.00,561.00 C1341.24,551.83 1346.14,541.07 1357.00,535.00 C1362.39,531.99 1370.09,530.87 1376.00,529.00 Z"/><path id="accent" fill="#FF6438" d="M1500.00,213.00 C1518.41,213.00 1536.83,213.00 1555.24,213.00 C1565.29,213.00 1576.25,211.87 1585.00,218.00 C1597.12,226.49 1596.00,241.03 1596.00,254.00 C1596.00,268.00 1596.00,282.00 1596.00,296.00 C1596.00,303.59 1596.44,312.30 1592.00,319.00 C1589.54,322.72 1584.31,325.99 1581.00,329.00 C1561.34,333.91 1538.81,331.49 1518.56,331.78 C1509.58,331.91 1499.08,333.00 1491.00,328.00 C1477.67,319.75 1478.00,305.69 1478.00,292.00 C1478.00,280.67 1478.00,269.33 1478.00,258.00 C1478.00,250.75 1476.25,241.00 1478.00,234.00 C1480.87,222.54 1490.49,217.75 1500.00,213.00 Z"/></g>
</svg>